<svg width="139" height="36" viewBox="0 0 139 36" fill="none" xmlns="http://www.w3.org/2000/svg">
<g id="Group 27">
<path id="Vector" d="M40.913 13.8328H45.9889C48.1931 13.8328 49.5281 12.261 49.5281 10.5959C49.5281 9.81781 49.109 8.86852 48.7209 8.46391V8.43279C49.171 7.99705 49.5281 7.20339 49.5281 6.3786C49.5281 4.66678 48.1931 3.48407 45.9889 3.48407H40.913V13.8328ZM42.7757 7.62356V5.16477H45.9889C47.0444 5.16477 47.6343 5.61607 47.6343 6.3786C47.6343 7.18783 47.091 7.62356 46.0976 7.62356H42.7757ZM42.7757 12.1521V9.33538H46.0976C47.091 9.33538 47.6343 9.77112 47.6343 10.5959C47.6343 11.374 47.0444 12.1521 45.9889 12.1521H42.7757ZM52.26 3.01721V13.8328H53.9986V3.01721H52.26ZM60.4411 14.0195C62.8471 14.0195 64.6633 12.4322 64.6633 10.129C64.6633 7.84143 62.8471 6.25411 60.4411 6.25411C58.0351 6.25411 56.25 7.84143 56.25 10.129C56.25 12.4322 58.0351 14.0195 60.4411 14.0195ZM60.4411 12.4167C58.9975 12.4167 58.0351 11.4985 58.0351 10.129C58.0351 8.75959 58.9975 7.82587 60.4411 7.82587C61.8847 7.82587 62.8627 8.75959 62.8627 10.129C62.8627 11.4985 61.8692 12.4167 60.4411 12.4167ZM70.5828 14.0195C71.8091 14.0195 72.9423 13.5216 73.8736 12.6657L72.6628 11.4829C72.0264 12.1365 71.3124 12.4167 70.5983 12.4167C69.1237 12.4167 68.1613 11.4829 68.1613 10.129C68.1613 8.75959 69.1392 7.82587 70.5828 7.82587C71.3589 7.82587 72.0885 8.1838 72.5852 8.72847L73.827 7.56132C72.9267 6.70541 71.7625 6.25411 70.5828 6.25411C68.1768 6.25411 66.3762 7.85699 66.3762 10.129C66.3762 12.4167 68.1613 14.0195 70.5828 14.0195ZM78.9922 10.8293L81.5069 13.8328H83.6956L80.2185 9.72443L83.7266 6.42529H81.274L77.8435 9.66219V3.01721H76.105V13.8328H77.8435V11.9031L78.9922 10.8293ZM88.6065 14.0195C89.8328 14.0195 90.966 13.5216 91.8973 12.6657L90.6866 11.4829C90.0501 12.1365 89.3361 12.4167 88.6221 12.4167C87.1474 12.4167 86.185 11.4829 86.185 10.129C86.185 8.75959 87.1629 7.82587 88.6065 7.82587C89.3827 7.82587 90.1122 8.1838 90.609 8.72847L91.8508 7.56132C90.9505 6.70541 89.7863 6.25411 88.6065 6.25411C86.2005 6.25411 84.3999 7.85699 84.3999 10.129C84.3999 12.4167 86.185 14.0195 88.6065 14.0195ZM98.118 6.25411C97.2333 6.25411 96.4416 6.3786 95.8673 6.78322V3.01721H94.1287V13.8328H95.8673V9.52213C95.8673 8.41723 96.9073 7.82587 97.9163 7.82587C99.0184 7.82587 99.7014 8.43279 99.7014 9.45988V13.8328H101.44V9.33538C101.44 7.46794 100.027 6.25411 98.118 6.25411ZM112.035 6.42529H110.296V6.89215C109.707 6.47198 108.884 6.25411 107.968 6.25411C105.671 6.25411 103.839 7.82587 103.839 10.129C103.839 12.4322 105.686 14.0195 107.921 14.0195C108.915 14.0195 109.753 13.8795 110.359 13.4282V13.8328H112.035V6.42529ZM108.015 12.4167C106.587 12.4167 105.624 11.4985 105.624 10.129C105.624 8.75959 106.587 7.82587 108.015 7.82587C109.443 7.82587 110.405 8.74403 110.405 10.129C110.405 11.5141 109.443 12.4167 108.015 12.4167ZM115.877 5.8495C116.467 5.8495 116.979 5.3982 116.979 4.8224C116.979 4.24661 116.467 3.81087 115.877 3.81087C115.256 3.81087 114.775 4.24661 114.775 4.8224C114.775 5.3982 115.256 5.8495 115.877 5.8495ZM116.731 13.8328V6.42529H114.992V13.8328H116.731ZM123.736 6.25411C122.852 6.25411 122.06 6.3786 121.486 6.78322V6.42529H119.747V13.8328H121.486V9.52213C121.486 8.41723 122.526 7.82587 123.535 7.82587C124.637 7.82587 125.32 8.43279 125.32 9.45988V13.8328H127.058V9.33538C127.058 7.46794 125.646 6.25411 123.736 6.25411ZM44.9489 32.6075C47.6653 32.6075 49.3728 31.3314 49.3728 29.464C49.3728 27.0363 46.6253 26.6628 45.1352 26.4294C43.0862 26.1493 42.4653 25.8069 42.4653 25.0755C42.4653 24.1573 43.3656 23.5971 45.1041 23.5971C46.1752 23.5971 47.1686 23.8616 48.2707 24.4686L49.4194 23.1458C48.1621 22.4455 46.5632 21.8853 45.1352 21.8853C43.0396 21.8853 40.556 22.6167 40.556 25.1689C40.556 26.7251 41.5339 27.5654 44.7937 28.1101C44.8402 28.1256 44.8868 28.1256 44.9334 28.1412L45.0886 28.1568C46.2528 28.3435 47.448 28.5458 47.448 29.4951C47.448 30.4132 46.408 30.8957 44.9644 30.8957C43.645 30.8957 42.279 30.5377 41.2079 29.8063L40.1213 31.1447C41.0837 31.8138 43.0396 32.6075 44.9489 32.6075ZM55.6849 32.6075C58.091 32.6075 59.9071 31.0202 59.9071 28.717C59.9071 26.4294 58.091 24.8421 55.6849 24.8421C53.2789 24.8421 51.4938 26.4294 51.4938 28.717C51.4938 31.0202 53.2789 32.6075 55.6849 32.6075ZM55.6849 31.0046C54.2413 31.0046 53.2789 30.0864 53.2789 28.717C53.2789 27.3475 54.2413 26.4138 55.6849 26.4138C57.1286 26.4138 58.1065 27.3475 58.1065 28.717C58.1065 30.0864 57.113 31.0046 55.6849 31.0046ZM65.9816 32.6075C67.2079 32.6075 68.3411 32.1095 69.2724 31.2536L68.0617 30.0709C67.4252 30.7245 66.7112 31.0046 65.9972 31.0046C64.5225 31.0046 63.5601 30.0709 63.5601 28.717C63.5601 27.3475 64.538 26.4138 65.9816 26.4138C66.7578 26.4138 67.4873 26.7717 67.9841 27.3164L69.2259 26.1493C68.3256 25.2934 67.1614 24.8421 65.9816 24.8421C63.5756 24.8421 61.775 26.4449 61.775 28.717C61.775 31.0046 63.5601 32.6075 65.9816 32.6075ZM72.6855 24.4374C73.2753 24.4374 73.7876 23.9861 73.7876 23.4103C73.7876 22.8346 73.2753 22.3988 72.6855 22.3988C72.0646 22.3988 71.5834 22.8346 71.5834 23.4103C71.5834 23.9861 72.0646 24.4374 72.6855 24.4374ZM73.5392 32.4207V25.0132H71.8007V32.4207H73.5392ZM83.9633 28.2501C83.9633 26.5227 82.6905 24.8421 80.1448 24.8421C77.7232 24.8421 76.0468 26.4138 76.0468 28.6859C76.0468 31.0357 77.8164 32.6075 80.2534 32.6075C81.4952 32.6075 82.706 32.0939 83.6374 31.2536L82.5352 30.0709C81.8367 30.6934 81.0451 31.0357 80.2379 31.0357C79.0427 31.0357 78.1734 30.4288 77.894 29.4173H83.7926C83.9168 28.9193 83.9633 28.4524 83.9633 28.2501ZM80.1292 26.3983C81.309 26.3983 82.0075 27.0519 82.1317 27.8766H77.9095C78.1734 26.9274 78.9806 26.3983 80.1292 26.3983ZM91.5727 32.1095L90.8431 30.7556C90.2998 30.989 89.9428 31.0046 89.6013 31.0046C88.8096 31.0046 88.4216 30.6467 88.4216 29.8997V26.5539H91.6348V25.0132H88.4216V22.9124H86.683V25.0132H85.1152V26.5539H86.683V29.8997C86.683 31.6582 87.723 32.6075 89.6168 32.6075C90.2998 32.6075 90.8741 32.4519 91.2933 32.234L91.5727 32.1095ZM101.604 25.0132H99.6636L97.3973 30.102L94.9758 25.0132H93.0355L96.497 32.1251L94.774 36H96.5591L101.604 25.0132ZM109.761 32.4207V22.072H107.899V32.4207H109.761ZM115.146 32.4207V22.072H113.284V32.4207H115.146ZM126.772 23.7527V22.072H117.536V23.7527H121.214V32.4207H123.093V23.7527H126.772ZM134.673 27.8766C136.629 27.7366 137.747 26.5383 137.747 24.9821C137.747 23.2703 136.412 22.0876 134.208 22.0876H129.132V32.4363H130.979L130.995 27.8922H132.469L135.807 32.4207H138.182L134.673 27.8766ZM130.995 23.7527H134.208C135.263 23.7527 135.853 24.204 135.853 24.9665C135.853 25.7135 135.263 26.2115 134.208 26.2115H130.995V23.7527Z" fill="white"/>
<path id="Vector_2" d="M26.9529 20.585L26.9525 20.5843C26.6479 20.0089 26.2689 19.4687 25.8237 18.9749C25.6029 18.7284 25.3649 18.4952 25.1107 18.2766C24.9852 18.1661 24.8574 18.0618 24.7284 17.9591L24.6696 17.9122H24.6646C24.551 17.8258 24.4344 17.7421 24.3193 17.6611L24.2634 17.622H24.2587C23.6253 17.1943 22.9306 16.8464 22.1944 16.5877C22.1823 16.5832 22.17 16.5793 22.1573 16.5763C22.0581 16.54 21.9596 16.5086 21.8662 16.4789L21.8608 16.4771L21.8587 16.4765C21.7431 16.4409 21.6278 16.408 21.5122 16.3778L10.7705 13.3482L10.7419 13.3401H10.7122H10.7092H10.6753L7.16614 12.3505L7.17207 12.3344L6.94714 12.271L4.60005 11.6088V7.91626H19.0231C19.709 7.91622 20.384 8.06752 20.9884 8.356L21.0811 8.16084L20.9884 8.356C21.5929 8.64443 22.1077 9.0607 22.4895 9.56663C22.8711 10.0724 23.1085 10.6528 23.1833 11.2568C23.2579 11.8609 23.1678 12.4727 22.9201 13.0397L22.9019 13.0812V13.1264V13.1291V13.2928L23.0589 13.3372L27.0433 14.4627L27.0719 14.4708H27.1017H27.1047H27.2515L27.3052 14.3338C27.7392 13.228 27.897 12.0486 27.7674 10.8803C27.6381 9.71199 27.2244 8.58525 26.5575 7.5804L26.4935 7.48398H26.4913C25.7961 6.46863 24.8574 5.60902 23.7456 4.96808C22.6551 4.33946 21.4262 3.93708 20.1469 3.7879V0.216139V0H19.9313H15.7624H15.5468V0.216139V3.72319H11.5471V0.216139V0H11.3315H7.16267H6.94708V0.216139V3.72319H0.215592H0V3.93933V14.5367V14.7004L0.157169 14.7448L4.32603 15.9214H4.32605L13.2682 18.4438L13.2682 18.4438L20.2536 20.4138L20.2557 20.4151L20.2884 20.4241C20.3792 20.4489 20.4671 20.4753 20.5513 20.5056C20.5544 20.507 20.5576 20.5084 20.561 20.5098C20.5687 20.5129 20.5768 20.5156 20.5851 20.5179L20.599 20.523H20.6038L20.6665 20.5406L20.6651 20.5445L20.8517 20.6259C21.7067 20.9991 22.3912 21.6208 22.7976 22.3846C23.2038 23.1476 23.3098 24.0102 23.1012 24.8326L23.2939 24.8819L23.1012 24.8326C22.892 25.6557 22.3785 26.3953 21.6381 26.9275C20.8977 27.46 19.9756 27.7518 19.0231 27.752H4.60005V19.6649V19.5011L4.44275 19.4568L0.273891 18.2828L0 18.2057V18.4909V31.729V31.9451H0.215592H6.94708V35.4468V35.6629H7.16267H11.3315H11.5471V35.4468V31.9451H15.5468V35.4468V35.6629H15.7624H19.9313H20.1469V35.4468V31.8777C21.4674 31.7225 22.7338 31.298 23.8486 30.6338C25.0182 29.9372 25.9886 28.9968 26.6763 27.8893C27.3643 26.7818 27.7493 25.5401 27.7976 24.2679C27.8459 22.9961 27.5557 21.733 26.9529 20.585Z" fill="url(#paint0_linear_727_283)"/>
</g>
<defs>
<linearGradient id="paint0_linear_727_283" x1="36.2109" y1="35.6631" x2="-9.47053" y2="-3.91472e-07" gradientUnits="userSpaceOnUse">
<stop stop-color="#0A3DFF"/>
<stop offset="1" stop-color="#00D1FF"/>
</linearGradient>
</defs>
</svg>
