<svg width="650" height="402" viewBox="0 0 650 402" fill="none" xmlns="http://www.w3.org/2000/svg">
<g opacity="0.3" filter="url(#filter0_f_57_122)">
<ellipse cx="509.893" cy="93.5" rx="154.107" ry="119.5" fill="url(#paint0_linear_57_122)"/>
</g>
<g opacity="0.3" filter="url(#filter1_f_57_122)">
<ellipse cx="85.8541" cy="412.5" rx="154.107" ry="119.5" fill="url(#paint1_linear_57_122)"/>
</g>
<g style="mix-blend-mode:luminosity" opacity="0.3">
<path d="M400.664 39.92H407.816L403.016 74H395.864L397.736 60.464H392.744L390.872 74H383.72L388.52 39.92H395.672L393.56 54.704H398.552L400.664 39.92ZM413.633 74.24C410.705 74.24 408.641 72.128 408.641 69.344C408.641 69.104 408.689 68.816 408.737 68.528L412.001 45.392C412.433 42.224 415.313 39.68 418.481 39.68H426.401C429.329 39.68 431.441 41.84 431.441 44.624C431.441 44.912 431.393 45.152 431.393 45.392L428.129 68.528C427.697 71.696 424.769 74.24 421.553 74.24H413.633ZM416.753 68.48H420.065C420.593 68.48 421.025 68.096 421.121 67.568L424.097 46.352C424.097 46.304 424.097 46.256 424.097 46.208C424.097 45.776 423.761 45.44 423.329 45.44H420.017C419.537 45.44 419.105 45.824 419.009 46.352L416.033 67.568C415.985 67.664 415.985 67.712 415.985 67.76C415.985 68.192 416.321 68.48 416.753 68.48ZM460.177 39.92H467.281L457.921 74H448.992L449.76 54.992L449.904 51.824H449.712L448.992 54.992L444.384 74H435.456L435.696 39.92H442.848L441.84 65.216H441.936L447.936 39.92H455.04L453.984 65.216H454.08L460.177 39.92ZM495.698 45.68H486.914L485.714 54.224H493.538L492.722 59.984H484.898L482.978 74H475.826L480.626 39.92H496.514L495.698 45.68ZM514.669 74H507.469L507.565 68.48H501.709L500.317 74H493.069L503.053 39.92H514.285L514.669 74ZM503.197 62.816H507.661L507.901 50.768L507.949 45.584H507.757L506.365 50.768L503.197 62.816ZM537.002 39.92C539.93 39.92 541.946 42.08 541.946 44.912C541.946 45.152 541.946 45.392 541.946 45.632L541.082 52.448C540.746 54.944 538.922 56.96 536.618 57.776C538.634 58.304 539.738 59.648 539.738 61.712C539.738 62.048 539.738 62.336 539.69 62.672L538.106 74H530.954L532.73 61.328C532.73 61.328 532.73 61.28 532.73 61.232C532.73 60.8 532.442 60.464 531.962 60.464H527.738L525.866 74H518.714L523.514 39.92H537.002ZM533.93 45.68H529.85L528.554 54.704H532.634C533.162 54.704 533.642 54.32 533.69 53.84L534.698 46.544C534.698 46.496 534.698 46.448 534.698 46.4C534.698 46.016 534.362 45.68 533.93 45.68ZM580.452 39.92H587.556L578.196 74H569.268L570.036 54.992L570.18 51.824H569.988L569.268 54.992L564.66 74H555.732L555.972 39.92H563.124L562.116 65.216H562.212L568.212 39.92H575.316L574.26 65.216H574.356L580.452 39.92ZM607.337 45.68H598.073L596.921 53.792H605.177L604.361 59.552H596.153L594.905 68.24H604.169L603.353 74H586.985L591.785 39.92H608.153L607.337 45.68ZM400.664 91.92H407.816L403.016 126H395.864L397.736 112.464H392.744L390.872 126H383.72L388.52 91.92H395.672L393.56 106.704H398.552L400.664 91.92ZM428.657 126H421.457L421.553 120.48H415.697L414.305 126H407.057L417.041 91.92H428.273L428.657 126ZM417.185 114.816H421.649L421.889 102.768L421.937 97.584H421.745L420.353 102.768L417.185 114.816ZM447.836 91.92H455.036L444.38 126H434.78L433.724 91.92H440.924L440.78 116.832H440.924L447.836 91.92ZM474.686 97.68H465.422L464.27 105.792H472.526L471.71 111.552H463.502L462.254 120.24H471.518L470.702 126H454.334L459.134 91.92H475.502L474.686 97.68ZM489.801 126.24C486.873 126.24 484.809 124.128 484.809 121.344C484.809 121.104 484.857 120.816 484.905 120.528L488.169 97.392C488.601 94.224 491.481 91.68 494.649 91.68H502.569C505.497 91.68 507.609 93.84 507.609 96.624C507.609 96.912 507.561 97.152 507.561 97.392L506.505 104.832H499.353L500.265 98.352C500.265 98.304 500.265 98.256 500.265 98.208C500.265 97.776 499.929 97.44 499.497 97.44H496.185C495.705 97.44 495.273 97.824 495.177 98.352L492.201 119.568C492.153 119.664 492.153 119.712 492.153 119.76C492.153 120.192 492.489 120.48 492.921 120.48H496.233C496.761 120.48 497.241 120.096 497.289 119.568L498.345 112.176H505.449L504.297 120.528C503.865 123.696 500.937 126.24 497.721 126.24H489.801ZM513.683 126.24C510.755 126.24 508.691 124.128 508.691 121.344C508.691 121.104 508.739 120.816 508.787 120.528L512.051 97.392C512.483 94.224 515.363 91.68 518.531 91.68H526.451C529.379 91.68 531.491 93.84 531.491 96.624C531.491 96.912 531.443 97.152 531.443 97.392L528.179 120.528C527.747 123.696 524.819 126.24 521.603 126.24H513.683ZM516.803 120.48H520.115C520.643 120.48 521.075 120.096 521.171 119.568L524.147 98.352C524.147 98.304 524.147 98.256 524.147 98.208C524.147 97.776 523.811 97.44 523.379 97.44H520.067C519.587 97.44 519.155 97.824 519.059 98.352L516.083 119.568C516.035 119.664 516.035 119.712 516.035 119.76C516.035 120.192 516.371 120.48 516.803 120.48ZM555.37 91.92H564.058L559.258 126H552.634L554.314 113.904L555.898 105.264H555.706L547.93 126H543.706L541.786 105.264H541.594L540.634 113.904L538.954 126H532.378L537.178 91.92H545.866L547.642 112.944L555.37 91.92ZM584.908 97.68H575.644L574.492 105.792H582.748L581.932 111.552H573.724L572.476 120.24H581.74L580.924 126H564.556L569.356 91.92H585.724L584.908 97.68ZM601.367 117.504L601.943 113.376C602.375 110.208 603.383 109.008 605.639 107.712L608.519 106.08C609.191 105.696 609.335 105.408 609.479 104.544L610.343 98.304C610.343 98.304 610.343 98.256 610.343 98.208C610.343 97.776 610.055 97.44 609.575 97.44H606.263C605.783 97.44 605.303 97.824 605.255 98.304L604.295 105.072H597.191L598.247 97.392C598.679 94.176 601.559 91.68 604.727 91.68H612.647C615.575 91.68 617.687 93.792 617.687 96.624C617.687 96.864 617.639 97.152 617.639 97.392L616.535 105.216C616.103 108.24 615.335 109.824 612.119 111.696L609.383 113.28C608.663 113.712 608.519 114 608.423 114.768L608.039 117.504H601.367ZM600.167 126L601.079 119.472H607.751L606.839 126H600.167Z" fill="#47DEFF"/>
</g>
<defs>
<filter id="filter0_f_57_122" x="55.7854" y="-326" width="908.215" height="839" filterUnits="userSpaceOnUse" color-interpolation-filters="sRGB">
<feFlood flood-opacity="0" result="BackgroundImageFix"/>
<feBlend mode="normal" in="SourceGraphic" in2="BackgroundImageFix" result="shape"/>
<feGaussianBlur stdDeviation="150" result="effect1_foregroundBlur_57_122"/>
</filter>
<filter id="filter1_f_57_122" x="-368.253" y="-7" width="908.215" height="839" filterUnits="userSpaceOnUse" color-interpolation-filters="sRGB">
<feFlood flood-opacity="0" result="BackgroundImageFix"/>
<feBlend mode="normal" in="SourceGraphic" in2="BackgroundImageFix" result="shape"/>
<feGaussianBlur stdDeviation="150" result="effect1_foregroundBlur_57_122"/>
</filter>
<linearGradient id="paint0_linear_57_122" x1="606.711" y1="3.41277" x2="256.808" y2="192.9" gradientUnits="userSpaceOnUse">
<stop stop-color="#00D1FF"/>
<stop offset="1" stop-color="#0500FF"/>
</linearGradient>
<linearGradient id="paint1_linear_57_122" x1="182.673" y1="322.413" x2="-167.231" y2="511.9" gradientUnits="userSpaceOnUse">
<stop stop-color="#00D1FF"/>
<stop offset="1" stop-color="#0500FF"/>
</linearGradient>
</defs>
</svg>
