<svg width="400" height="400" viewBox="0 0 400 400" fill="none" xmlns="http://www.w3.org/2000/svg">
<line x1="400" y1="15.3707" x2="-2.42841e-08" y2="15.3707" stroke="#3f2b41" stroke-width="1.11111"/>
<line x1="400" y1="30.1852" x2="-2.42841e-08" y2="30.1852" stroke="#3f2b41" stroke-width="1.11111"/>
<line x1="400" y1="45.0006" x2="-2.42841e-08" y2="45.0006" stroke="#3f2b41" stroke-width="1.11111"/>
<line x1="400" y1="59.8152" x2="-2.42841e-08" y2="59.8152" stroke="#3f2b41" stroke-width="1.11111"/>
<line x1="400" y1="74.6295" x2="-2.42841e-08" y2="74.6295" stroke="#3f2b41" stroke-width="1.11111"/>
<line x1="400" y1="89.4448" x2="-2.42841e-08" y2="89.4448" stroke="#3f2b41" stroke-width="1.11111"/>
<line x1="400" y1="104.26" x2="-2.42841e-08" y2="104.26" stroke="#3f2b41" stroke-width="1.11111"/>
<line x1="400" y1="119.075" x2="-2.42841e-08" y2="119.075" stroke="#3f2b41" stroke-width="1.11111"/>
<line x1="400" y1="133.889" x2="-2.42841e-08" y2="133.889" stroke="#3f2b41" stroke-width="1.11111"/>
<line x1="400" y1="148.704" x2="-2.42841e-08" y2="148.704" stroke="#3f2b41" stroke-width="1.11111"/>
<line x1="400" y1="163.519" x2="-2.42841e-08" y2="163.519" stroke="#3f2b41" stroke-width="1.11111"/>
<line x1="400" y1="178.334" x2="-2.42841e-08" y2="178.334" stroke="#3f2b41" stroke-width="1.11111"/>
<line x1="400" y1="193.148" x2="-2.42841e-08" y2="193.148" stroke="#3f2b41" stroke-width="1.11111"/>
<line x1="400" y1="207.963" x2="-2.42841e-08" y2="207.963" stroke="#3f2b41" stroke-width="1.11111"/>
<line x1="400" y1="222.778" x2="-2.42841e-08" y2="222.778" stroke="#3f2b41" stroke-width="1.11111"/>
<line x1="400" y1="237.593" x2="-2.42841e-08" y2="237.593" stroke="#3f2b41" stroke-width="1.11111"/>
<line x1="400" y1="252.408" x2="-2.42841e-08" y2="252.408" stroke="#3f2b41" stroke-width="1.11111"/>
<line x1="400" y1="267.222" x2="-2.42841e-08" y2="267.222" stroke="#3f2b41" stroke-width="1.11111"/>
<line x1="400" y1="282.038" x2="-2.42841e-08" y2="282.038" stroke="#3f2b41" stroke-width="1.11111"/>
<line x1="400" y1="296.852" x2="-2.42841e-08" y2="296.852" stroke="#3f2b41" stroke-width="1.11111"/>
<line x1="400" y1="311.667" x2="-2.42841e-08" y2="311.667" stroke="#3f2b41" stroke-width="1.11111"/>
<line x1="400" y1="326.482" x2="-2.42841e-08" y2="326.482" stroke="#3f2b41" stroke-width="1.11111"/>
<line x1="400" y1="341.297" x2="-2.42841e-08" y2="341.297" stroke="#3f2b41" stroke-width="1.11111"/>
<line x1="400" y1="356.112" x2="-2.42841e-08" y2="356.112" stroke="#3f2b41" stroke-width="1.11111"/>
<line x1="400" y1="370.926" x2="-2.42841e-08" y2="370.926" stroke="#3f2b41" stroke-width="1.11111"/>
<line x1="400" y1="385.741" x2="-2.42841e-08" y2="385.741" stroke="#3f2b41" stroke-width="1.11111"/>
<line x1="15.3681" x2="15.3681" y2="400" stroke="#3f2b41" stroke-width="1.11111"/>
<line x1="30.1845" x2="30.1845" y2="400" stroke="#3f2b41" stroke-width="1.11111"/>
<line x1="44.997" x2="44.997" y2="400" stroke="#3f2b41" stroke-width="1.11111"/>
<line x1="59.8134" x2="59.8134" y2="400" stroke="#3f2b41" stroke-width="1.11111"/>
<line x1="74.6259" x2="74.6259" y2="400" stroke="#3f2b41" stroke-width="1.11111"/>
<line x1="89.4422" x2="89.4422" y2="400" stroke="#3f2b41" stroke-width="1.11111"/>
<line x1="104.259" x2="104.259" y2="400" stroke="#3f2b41" stroke-width="1.11111"/>
<line x1="119.071" x2="119.071" y2="400" stroke="#3f2b41" stroke-width="1.11111"/>
<line x1="133.888" x2="133.888" y2="400" stroke="#3f2b41" stroke-width="1.11111"/>
<line x1="148.7" x2="148.7" y2="400" stroke="#3f2b41" stroke-width="1.11111"/>
<line x1="163.516" x2="163.516" y2="400" stroke="#3f2b41" stroke-width="1.11111"/>
<line x1="178.333" x2="178.333" y2="400" stroke="#3f2b41" stroke-width="1.11111"/>
<line x1="193.145" x2="193.145" y2="400" stroke="#3f2b41" stroke-width="1.11111"/>
<line x1="207.962" x2="207.962" y2="400" stroke="#3f2b41" stroke-width="1.11111"/>
<line x1="222.774" x2="222.774" y2="400" stroke="#3f2b41" stroke-width="1.11111"/>
<line x1="237.591" x2="237.591" y2="400" stroke="#3f2b41" stroke-width="1.11111"/>
<line x1="252.403" x2="252.403" y2="400" stroke="#3f2b41" stroke-width="1.11111"/>
<line x1="267.22" x2="267.22" y2="400" stroke="#3f2b41" stroke-width="1.11111"/>
<line x1="282.036" x2="282.036" y2="400" stroke="#3f2b41" stroke-width="1.11111"/>
<line x1="296.849" x2="296.849" y2="400" stroke="#3f2b41" stroke-width="1.11111"/>
<line x1="311.665" x2="311.665" y2="400" stroke="#3f2b41" stroke-width="1.11111"/>
<line x1="326.477" x2="326.477" y2="400" stroke="#3f2b41" stroke-width="1.11111"/>
<line x1="341.294" x2="341.294" y2="400" stroke="#3f2b41" stroke-width="1.11111"/>
<line x1="356.11" x2="356.11" y2="400" stroke="#3f2b41" stroke-width="1.11111"/>
<line x1="370.923" x2="370.923" y2="400" stroke="#3f2b41" stroke-width="1.11111"/>
<line x1="385.739" x2="385.739" y2="400" stroke="#3f2b41" stroke-width="1.11111"/>
<path fill-rule="evenodd" clip-rule="evenodd" d="M30.8945 23.0547H26.4106L25.6325 27.547H30.1172L30.8945 23.0547ZM30.1172 27.547L29.3384 32.048H24.853L24.0741 36.5453H33.0603L34.6188 27.547H30.1172Z" fill="white"/>
<path fill-rule="evenodd" clip-rule="evenodd" d="M36.6874 36.4535L38.2454 27.4577H42.7339L43.5117 22.963H48.01L47.2316 27.4577H42.7332L41.9544 31.9587H46.452L45.6736 36.4535H36.6874Z" fill="white"/>
<path d="M180.885 27.0917H184.302C185.786 27.0917 186.685 26.0335 186.685 24.9123C186.685 24.3884 186.403 23.7493 186.142 23.4768V23.4559C186.445 23.1625 186.685 22.6281 186.685 22.0728C186.685 20.9202 185.786 20.1239 184.302 20.1239H180.885V27.0917ZM182.139 22.911V21.2555H184.302C185.013 21.2555 185.41 21.5594 185.41 22.0728C185.41 22.6177 185.044 22.911 184.375 22.911H182.139ZM182.139 25.9601V24.0636H184.375C185.044 24.0636 185.41 24.357 185.41 24.9123C185.41 25.4362 185.013 25.9601 184.302 25.9601H182.139ZM188.525 19.8096V27.0917H189.695V19.8096H188.525ZM194.033 27.2175C195.653 27.2175 196.876 26.1487 196.876 24.598C196.876 23.0577 195.653 21.989 194.033 21.989C192.413 21.989 191.211 23.0577 191.211 24.598C191.211 26.1487 192.413 27.2175 194.033 27.2175ZM194.033 26.1382C193.061 26.1382 192.413 25.52 192.413 24.598C192.413 23.6759 193.061 23.0473 194.033 23.0473C195.005 23.0473 195.663 23.6759 195.663 24.598C195.663 25.52 194.994 26.1382 194.033 26.1382ZM200.861 27.2175C201.687 27.2175 202.45 26.8822 203.077 26.3059L202.262 25.5096C201.833 25.9496 201.353 26.1382 200.872 26.1382C199.879 26.1382 199.231 25.5096 199.231 24.598C199.231 23.6759 199.889 23.0473 200.861 23.0473C201.384 23.0473 201.875 23.2882 202.21 23.655L203.046 22.8691C202.44 22.2928 201.656 21.989 200.861 21.989C199.241 21.989 198.029 23.0682 198.029 24.598C198.029 26.1382 199.231 27.2175 200.861 27.2175ZM206.523 25.0695L208.217 27.0917H209.69L207.349 24.3256L209.711 22.1042H208.06L205.75 24.2836V19.8096H204.579V27.0917H205.75V25.7925L206.523 25.0695ZM212.997 27.2175C213.822 27.2175 214.585 26.8822 215.212 26.3059L214.397 25.5096C213.969 25.9496 213.488 26.1382 213.007 26.1382C212.014 26.1382 211.366 25.5096 211.366 24.598C211.366 23.6759 212.025 23.0473 212.997 23.0473C213.519 23.0473 214.011 23.2882 214.345 23.655L215.181 22.8691C214.575 22.2928 213.791 21.989 212.997 21.989C211.377 21.989 210.164 23.0682 210.164 24.598C210.164 26.1382 211.366 27.2175 212.997 27.2175ZM219.401 21.989C218.805 21.989 218.272 22.0728 217.885 22.3452V19.8096H216.715V27.0917H217.885V24.1893C217.885 23.4454 218.586 23.0473 219.265 23.0473C220.007 23.0473 220.467 23.4559 220.467 24.1474V27.0917H221.638V24.0636C221.638 22.8063 220.686 21.989 219.401 21.989ZM228.771 22.1042H227.601V22.4186C227.203 22.1357 226.65 21.989 226.033 21.989C224.486 21.989 223.253 23.0473 223.253 24.598C223.253 26.1487 224.497 27.2175 226.002 27.2175C226.67 27.2175 227.235 27.1232 227.642 26.8193V27.0917H228.771V22.1042ZM226.064 26.1382C225.103 26.1382 224.455 25.52 224.455 24.598C224.455 23.6759 225.103 23.0473 226.064 23.0473C227.026 23.0473 227.674 23.6655 227.674 24.598C227.674 25.5305 227.026 26.1382 226.064 26.1382ZM231.358 21.7166C231.755 21.7166 232.1 21.4127 232.1 21.025C232.1 20.6373 231.755 20.3439 231.358 20.3439C230.94 20.3439 230.616 20.6373 230.616 21.025C230.616 21.4127 230.94 21.7166 231.358 21.7166ZM231.933 27.0917V22.1042H230.762V27.0917H231.933ZM236.65 21.989C236.054 21.989 235.521 22.0728 235.134 22.3452V22.1042H233.964V27.0917H235.134V24.1893C235.134 23.4454 235.835 23.0473 236.514 23.0473C237.256 23.0473 237.716 23.4559 237.716 24.1474V27.0917H238.886V24.0636C238.886 22.8063 237.935 21.989 236.65 21.989ZM183.602 39.7328C185.431 39.7328 186.581 38.8736 186.581 37.6162C186.581 35.9817 184.731 35.7302 183.727 35.573C182.348 35.3844 181.93 35.1539 181.93 34.6615C181.93 34.0433 182.536 33.6661 183.706 33.6661C184.428 33.6661 185.097 33.8442 185.839 34.2528L186.612 33.3622C185.765 32.8907 184.689 32.5135 183.727 32.5135C182.316 32.5135 180.644 33.0059 180.644 34.7243C180.644 35.7721 181.303 36.3379 183.497 36.7047C183.529 36.7151 183.56 36.7151 183.592 36.7256L183.696 36.7361C184.48 36.8618 185.285 36.998 185.285 37.6372C185.285 38.2554 184.584 38.5802 183.612 38.5802C182.724 38.5802 181.804 38.3392 181.083 37.8468L180.352 38.7479C181 39.1984 182.316 39.7328 183.602 39.7328ZM190.831 39.7328C192.451 39.7328 193.673 38.664 193.673 37.1133C193.673 35.573 192.451 34.5043 190.831 34.5043C189.211 34.5043 188.009 35.573 188.009 37.1133C188.009 38.664 189.211 39.7328 190.831 39.7328ZM190.831 38.6536C189.859 38.6536 189.211 38.0354 189.211 37.1133C189.211 36.1912 189.859 35.5626 190.831 35.5626C191.803 35.5626 192.461 36.1912 192.461 37.1133C192.461 38.0354 191.792 38.6536 190.831 38.6536ZM197.763 39.7328C198.589 39.7328 199.352 39.3975 199.979 38.8212L199.164 38.0249C198.735 38.465 198.255 38.6536 197.774 38.6536C196.781 38.6536 196.133 38.0249 196.133 37.1133C196.133 36.1912 196.791 35.5626 197.763 35.5626C198.286 35.5626 198.777 35.8036 199.112 36.1703L199.948 35.3844C199.342 34.8082 198.558 34.5043 197.763 34.5043C196.143 34.5043 194.931 35.5835 194.931 37.1133C194.931 38.6536 196.133 39.7328 197.763 39.7328ZM202.277 34.2319C202.674 34.2319 203.019 33.928 203.019 33.5403C203.019 33.1526 202.674 32.8593 202.277 32.8593C201.859 32.8593 201.535 33.1526 201.535 33.5403C201.535 33.928 201.859 34.2319 202.277 34.2319ZM202.852 39.607V34.6195H201.681V39.607H202.852ZM209.87 36.799C209.87 35.6359 209.013 34.5043 207.299 34.5043C205.669 34.5043 204.54 35.5626 204.54 37.0923C204.54 38.6745 205.732 39.7328 207.373 39.7328C208.209 39.7328 209.024 39.387 209.651 38.8212L208.909 38.0249C208.439 38.444 207.906 38.6745 207.362 38.6745C206.557 38.6745 205.972 38.2659 205.784 37.5848H209.756C209.839 37.2495 209.87 36.9352 209.87 36.799ZM207.289 35.5521C208.083 35.5521 208.554 35.9922 208.637 36.5475H205.794C205.972 35.9083 206.516 35.5521 207.289 35.5521ZM214.994 39.3975L214.503 38.4859C214.137 38.6431 213.896 38.6536 213.667 38.6536C213.134 38.6536 212.872 38.4126 212.872 37.9096V35.6569H215.036V34.6195H212.872V33.205H211.702V34.6195H210.646V35.6569H211.702V37.9096C211.702 39.0936 212.402 39.7328 213.677 39.7328C214.137 39.7328 214.524 39.628 214.806 39.4813L214.994 39.3975ZM221.748 34.6195H220.442L218.916 38.0458L217.285 34.6195H215.979L218.309 39.408L217.149 42.017H218.351L221.748 34.6195ZM227.24 39.607V32.6392H225.986V39.607H227.24ZM230.866 39.607V32.6392H229.612V39.607H230.866ZM238.693 33.7708V32.6392H232.475V33.7708H234.952V39.607H236.216V33.7708H238.693ZM244.014 36.5475C245.331 36.4532 246.083 35.6464 246.083 34.5986C246.083 33.446 245.184 32.6497 243.7 32.6497H240.283V39.6175H241.526L241.537 36.558H242.53L244.777 39.607H246.376L244.014 36.5475ZM241.537 33.7708H243.7C244.411 33.7708 244.808 34.0747 244.808 34.5881C244.808 35.0911 244.411 35.4264 243.7 35.4264H241.537V33.7708Z" fill="white"/>
<path d="M171.483 31.6382L171.483 31.6378C171.278 31.2503 171.023 30.8866 170.723 30.5541C170.574 30.3882 170.414 30.2312 170.243 30.084C170.159 30.0096 170.072 29.9394 169.986 29.8702L169.946 29.8386H169.943C169.866 29.7805 169.788 29.7241 169.71 29.6696L169.673 29.6433H169.669C169.243 29.3553 168.775 29.1211 168.279 28.9469C168.271 28.9438 168.263 28.9412 168.254 28.9392C168.188 28.9148 168.121 28.8936 168.059 28.8736L168.055 28.8724L168.053 28.872C167.976 28.848 167.898 28.8259 167.82 28.8055L160.588 26.7657L160.568 26.7603H160.548H160.546H160.524L158.161 26.094L158.165 26.0831L158.013 26.0404L156.433 25.5946V23.1084H166.144C166.606 23.1083 167.061 23.2102 167.468 23.4044L167.53 23.273L167.468 23.4044C167.874 23.5986 168.221 23.8789 168.478 24.2196C168.735 24.5601 168.895 24.9508 168.945 25.3576C168.996 25.7643 168.935 26.1762 168.768 26.558L168.756 26.5859V26.6164V26.6182V26.7284L168.862 26.7583L171.544 27.5161L171.564 27.5216H171.584H171.586H171.684L171.721 27.4293C172.013 26.6848 172.119 25.8907 172.032 25.104C171.945 24.3174 171.666 23.5588 171.217 22.8822L171.174 22.8173H171.173C170.704 22.1337 170.072 21.5549 169.324 21.1233C168.59 20.7001 167.762 20.4292 166.901 20.3287V17.9238V17.7783H166.756H163.949H163.804V17.9238V20.2852H161.111V17.9238V17.7783H160.965H158.159H158.013V17.9238V20.2852H153.481H153.336V20.4307V27.566V27.6762L153.442 27.706L156.249 28.4982H156.249L162.269 30.1966L162.269 30.1966L166.973 31.523L166.974 31.5239L166.996 31.5299C167.057 31.5466 167.116 31.5644 167.173 31.5848C167.175 31.5858 167.177 31.5867 167.18 31.5876C167.185 31.5897 167.19 31.5916 167.196 31.5931L167.205 31.5965H167.209L167.251 31.6084L167.25 31.611L167.375 31.6658C167.951 31.917 168.412 32.3357 168.686 32.85C168.959 33.3637 169.031 33.9445 168.89 34.4982L169.02 34.5314L168.89 34.4982C168.749 35.0524 168.403 35.5504 167.905 35.9086C167.406 36.2672 166.786 36.4637 166.144 36.4638H156.433V31.0187V30.9084L156.327 30.8786L153.52 30.0882L153.336 30.0363V30.2283V39.1415V39.2871H153.481H158.013V41.6447V41.7903H158.159H160.965H161.111V41.6447V39.2871H163.804V41.6447V41.7903H163.949H166.756H166.901V41.6447V39.2416C167.79 39.1372 168.643 38.8513 169.393 38.4041C170.181 37.9351 170.834 37.3019 171.297 36.5562C171.76 35.8106 172.02 34.9745 172.052 34.1179C172.085 33.2617 171.889 32.4112 171.483 31.6382Z" fill="white"/>
<path d="M376.732 30.5475C376.5 30.1815 376.265 29.8182 376.031 29.4539C375.732 28.9904 375.433 28.5271 375.133 28.0641C374.839 27.6113 374.544 27.1571 374.249 26.7015C374.031 26.3618 373.812 26.0242 373.592 25.6886C373.203 25.0841 372.764 24.4898 372.162 24.0653C371.524 23.6289 370.799 23.336 370.037 23.2069C369.719 23.1504 369.397 23.1174 369.074 23.1084C368.25 23.0911 367.439 23.3056 366.731 23.7274C366.051 24.1391 365.496 24.7224 364.897 25.2412C364.863 25.2764 364.821 25.3038 364.775 25.3214C364.729 25.339 364.68 25.3464 364.631 25.3431C364.581 25.3397 364.534 25.3258 364.49 25.3022C364.447 25.2786 364.409 25.2459 364.38 25.2063C363.905 24.646 363.392 24.1026 362.776 23.6892C362.153 23.2911 361.442 23.0512 360.705 22.9904L360.654 22.9853C359.884 22.9208 359.109 22.9956 358.366 23.2061C358.252 23.2375 358.139 23.274 358.026 23.3148C357.299 23.583 356.73 24.0823 356.228 24.6596C355.746 25.214 355.344 25.8295 354.925 26.4315L353.128 29.0167C352.539 29.8632 351.938 30.6935 351.656 31.7064C351.486 32.3202 351.422 32.9799 351.558 33.6039C351.746 34.4631 352.159 35.2773 352.808 35.8801C353.496 36.5219 354.437 36.8369 355.364 36.9133C356.389 36.9982 357.524 36.724 358.32 36.049C358.484 35.909 358.723 35.7307 358.762 35.504C358.804 35.2493 358.72 34.975 358.641 34.7399C358.352 33.873 358.301 33.7066 358.301 33.7066C358.301 33.7066 358.185 33.3161 357.876 33.6345C357.498 34.0208 357.231 34.4656 356.735 34.7203C356.373 34.9035 355.968 34.984 355.563 34.953C355.158 34.922 354.77 34.7808 354.44 34.5446C353.454 33.8323 353.371 32.6216 353.845 31.5833C353.961 31.3286 354.1 31.0874 354.238 30.8463C354.586 30.2469 354.981 29.6764 355.367 29.1008C355.97 28.1974 356.557 27.2635 357.221 26.406C357.674 25.8236 358.208 25.2437 358.911 24.9703C359.307 24.8198 359.73 24.7549 360.152 24.7801C360.575 24.8053 360.987 24.9199 361.362 25.1164C362.251 25.5816 362.92 26.3287 363.501 27.1302C363.94 27.7338 364.391 28.3265 364.847 28.9199C365.802 30.1651 366.757 31.4103 367.711 32.6556C369.216 34.6168 370.745 37.5433 373.662 37.1961C374.427 37.1044 375.159 36.7996 375.818 36.4031C375.85 36.3836 375.883 36.3657 375.912 36.3445C378.114 34.7475 377.592 31.8948 376.732 30.5475ZM375.351 34.098C375.146 34.4389 374.855 34.7197 374.507 34.9118C374.159 35.1039 373.766 35.2004 373.368 35.1915C371.877 35.1576 371.027 33.8425 370.223 32.7719C369.775 32.1708 369.323 31.5705 368.868 30.9771L368.584 30.6026L368.296 30.2274L368.013 29.8606L367.739 29.4989C367.653 29.3857 367.565 29.2725 367.478 29.1593L367.23 28.8376L367.001 28.5387L366.792 28.267L366.607 28.0259C366.554 27.958 366.501 27.8892 366.448 27.8204L366.32 27.6506L366.225 27.5267L366.14 27.424C366.075 27.3499 366.022 27.2656 365.985 27.1743C365.908 26.9621 366.013 26.8093 366.162 26.6649C366.972 25.8839 367.892 24.9143 369.096 24.9143C369.728 24.9143 370.398 25.0603 370.924 25.4237C371.395 25.7497 371.733 26.2973 372.054 26.7634C372.399 27.2635 372.721 27.7822 373.061 28.2832C373.706 29.2366 374.337 30.2011 374.915 31.1953C375.426 32.0714 375.926 33.1123 375.354 34.098H375.351Z" fill="white"/>
<path d="M367.427 35.41C366.568 36.3168 365.605 36.9968 364.321 37.0834C363.387 37.1417 362.46 36.8929 361.682 36.3751C360.903 35.8573 360.316 35.0991 360.01 34.2163C359.693 33.299 359.718 32.2982 360.08 31.3976C360.469 30.445 361.154 29.6206 361.807 28.837V28.8327L361.977 28.6273C362.237 28.3098 362.433 28.6205 362.433 28.6205C362.433 28.6205 362.997 29.2632 363.25 29.5884C363.488 29.894 363.279 30.1648 363.051 30.3949C362.168 31.2881 361.351 32.7229 362.062 33.9514C362.587 34.8471 363.776 35.23 364.749 34.932C365.367 34.7393 365.698 34.3275 366.109 33.8674C366.413 33.5278 366.619 33.8962 366.619 33.8962C366.619 33.8962 367.031 34.3513 367.357 34.7452C367.682 35.1392 367.427 35.41 367.427 35.41Z" fill="white"/>
</svg>
