<svg width="21" height="28" viewBox="0 0 21 28" fill="none" xmlns="http://www.w3.org/2000/svg">
<path d="M20.4708 4.17859V23.8214C20.4719 24.5969 20.2569 25.3569 19.8506 26.0133C19.4444 26.6698 18.8635 27.1959 18.1752 27.5307C17.3585 27.9227 16.45 28.0737 15.553 27.9665C14.656 27.8592 13.8067 27.4981 13.1019 26.9242L1.39415 17.1027C0.956537 16.7173 0.605567 16.2408 0.365028 15.7055C0.124488 15.1701 0 14.5885 0 14C0 13.4115 0.124488 12.8299 0.365028 12.2946C0.605567 11.7592 0.956537 11.2827 1.39415 10.8973L13.1019 1.07585C13.8067 0.501945 14.656 0.140799 15.553 0.0335579C16.45 -0.0736828 17.3585 0.0773048 18.1752 0.469305C18.8635 0.804171 19.4444 1.33027 19.8506 1.98672C20.2569 2.64316 20.4719 3.40311 20.4708 4.17859Z" fill="#0C21D6"/>
</svg>
