<svg width="21" height="28" viewBox="0 0 21 28" fill="none" xmlns="http://www.w3.org/2000/svg">
<path d="M0.529181 4.17859V23.8214C0.528074 24.5969 0.743099 25.3569 1.14936 26.0133C1.55563 26.6698 2.13652 27.1959 2.82481 27.5307C3.64146 27.9227 4.55005 28.0737 5.44703 27.9665C6.34401 27.8592 7.19331 27.4981 7.89814 26.9242L19.6058 17.1027C20.0435 16.7173 20.3944 16.2408 20.635 15.7055C20.8755 15.1701 21 14.5885 21 14C21 13.4115 20.8755 12.8299 20.635 12.2946C20.3944 11.7592 20.0435 11.2827 19.6058 10.8973L7.89814 1.07585C7.19331 0.501945 6.34401 0.140797 5.44703 0.033556C4.55005 -0.0736828 3.64146 0.0773029 2.82481 0.469303C2.13652 0.804169 1.55563 1.33027 1.14936 1.98672C0.743099 2.64316 0.528074 3.4031 0.529181 4.17859Z" fill="#0C21D6"/>
</svg>
