<svg width="30" height="23" viewBox="0 0 30 23" fill="none" xmlns="http://www.w3.org/2000/svg">
<path id="Vector" d="M25.1523 2.3409C23.2798 1.46803 21.2525 0.834491 19.1407 0.468449C19.1222 0.467856 19.1037 0.471331 19.0867 0.478628C19.0697 0.485926 19.0545 0.496868 19.0421 0.510685C18.7887 0.975277 18.493 1.58065 18.2959 2.04525C16.056 1.70736 13.778 1.70736 11.5381 2.04525C11.341 1.56658 11.0453 0.975277 10.7778 0.510685C10.7638 0.482527 10.7215 0.468449 10.6793 0.468449C8.56747 0.834491 6.5542 1.46803 4.66764 2.3409C4.65356 2.3409 4.63948 2.35498 4.6254 2.36905C0.795961 8.09903 -0.259951 13.6741 0.260965 19.1929C0.260965 19.2211 0.275044 19.2492 0.303202 19.2633C2.83739 21.1217 5.27303 22.248 7.68051 22.9941C7.72274 23.0082 7.76498 22.9941 7.77906 22.966C8.34221 22.1917 8.84905 21.3751 9.28549 20.5163C9.31365 20.46 9.28549 20.4037 9.22918 20.3896C8.42668 20.0799 7.66643 19.7138 6.92025 19.2915C6.86393 19.2633 6.86393 19.1789 6.90617 19.1366C7.06104 19.024 7.2159 18.8973 7.37077 18.7847C7.39893 18.7565 7.44117 18.7565 7.46932 18.7706C12.3124 20.9809 17.5357 20.9809 22.3225 18.7706C22.3506 18.7565 22.3929 18.7565 22.421 18.7847C22.5759 18.9114 22.7308 19.024 22.8856 19.1507C22.9419 19.1929 22.9419 19.2774 22.8716 19.3056C22.1395 19.742 21.3651 20.094 20.5626 20.4037C20.5063 20.4178 20.4922 20.4882 20.5063 20.5304C20.9568 21.3892 21.4637 22.2057 22.0127 22.9801C22.055 22.9941 22.0972 23.0082 22.1395 22.9941C24.561 22.248 26.9966 21.1217 29.5308 19.2633C29.559 19.2492 29.5731 19.2211 29.5731 19.1929C30.1925 12.8153 28.5453 7.28247 25.2086 2.36905C25.1946 2.35498 25.1805 2.3409 25.1523 2.3409ZM10.0176 15.8282C8.56747 15.8282 7.35669 14.4907 7.35669 12.8435C7.35669 11.1963 8.53931 9.85885 10.0176 9.85885C11.5099 9.85885 12.6926 11.2104 12.6785 12.8435C12.6785 14.4907 11.4959 15.8282 10.0176 15.8282ZM19.8305 15.8282C18.3804 15.8282 17.1696 14.4907 17.1696 12.8435C17.1696 11.1963 18.3523 9.85885 19.8305 9.85885C21.3229 9.85885 22.5055 11.2104 22.4914 12.8435C22.4914 14.4907 21.3229 15.8282 19.8305 15.8282Z" fill="#5174FF"/>
</svg>
