<svg width="100" height="100" viewBox="0 0 100 100" fill="none" xmlns="http://www.w3.org/2000/svg">
<path d="M86.3897 0H13.6103C6.09352 0 0 6.09352 0 13.6103V86.3897C0 93.9065 6.09352 100 13.6103 100H86.3897C93.9065 100 100 93.9065 100 86.3897V13.6103C100 6.09352 93.9065 0 86.3897 0Z" fill="url(#paint0_linear_17_2)"/>
<path d="M71.9066 54.5076L71.9058 54.5065L70.002 51.8136C69.6298 51.4014 69.2285 51.011 68.8 50.6454C68.5884 50.4607 68.373 50.2861 68.1556 50.1146L68.0499 50.0306H68.0409C67.8515 49.8883 67.6575 49.7499 67.4654 49.6161L67.3654 49.5465H67.3569C66.291 48.8329 65.1225 48.2528 63.8839 47.8207C63.8633 47.8129 63.8419 47.8063 63.8202 47.8013C63.653 47.7406 63.4877 47.6885 63.331 47.6387L63.3216 47.6356L63.3178 47.6348C63.1233 47.5754 62.9285 47.5201 62.7341 47.4696L44.6569 42.4112L44.6056 42.3968H44.5519H44.5469H44.4932L38.6194 40.7535L38.6295 40.7267L38.2224 40.6127L34.2917 39.5126V33.397H58.5386C59.6897 33.397 60.8216 33.6486 61.8358 34.1288C62.8496 34.6087 63.7125 35.3012 64.3521 36.142C64.9914 36.9827 65.3888 37.9471 65.5137 38.9503C65.6389 39.9532 65.488 40.9693 65.0731 41.9115L65.04 41.9862V42.0682V42.0725V42.3673L65.3239 42.447L72.0295 44.3264L72.0808 44.3408H72.1341H72.1391H72.4036L72.5008 44.095C73.2326 42.2444 73.499 40.2701 73.2805 38.3145C73.0619 36.3589 72.3643 34.4733 71.2397 32.7919L71.1242 32.6192H71.1203C69.9483 30.925 68.3683 29.4912 66.4983 28.4217C64.6667 27.3741 62.6038 26.7023 60.4557 26.4507V20.5122V20.1233H60.0668H53.0513H52.6625V20.5122V26.3398H45.9833V20.5122V20.1233H45.5945H38.5786H38.1897V20.5122V26.3398H26.8872H26.4984V26.7287V44.4228V44.718L26.7824 44.7973L33.7983 46.7618L48.8469 50.9736H48.8473L60.5992 54.2615L60.6027 54.2638L60.6618 54.2798C60.8139 54.321 60.9609 54.3649 61.1012 54.4151C61.1067 54.4174 61.1121 54.4198 61.1176 54.4221C61.1312 54.4275 61.1456 54.4322 61.1599 54.4365L61.1864 54.4458H61.1953L61.2692 54.4664L61.2681 54.4695L61.6064 54.6157C63.0405 55.2368 64.1876 56.2708 64.8682 57.54C65.5483 58.8077 65.726 60.2407 65.3764 61.6064C65.0264 62.9732 64.1666 64.2028 62.9254 65.0883H62.925C61.6838 65.9741 60.1368 66.4598 58.5386 66.4602H34.2917V52.9852V52.6901L34.0075 52.6108L26.9919 50.6505L26.4984 50.5128V51.025V73.1284V73.5173H26.8872H38.1897V79.3359V79.7247H38.5786H45.5945H45.9833V79.3359V73.5173H52.6625V79.3359V79.7247H53.0513H60.0668H60.4557V79.3359V73.4014C62.673 73.1401 64.7989 72.4312 66.6717 71.3245C68.6436 70.159 70.28 68.5857 71.44 66.7328C72.6003 64.8794 73.2497 62.8013 73.3314 60.6719C73.4127 58.5429 72.9231 56.429 71.9066 54.5076Z" fill="white"/>
<path d="M61.8358 34.1288C60.8216 33.6486 59.6897 33.397 58.5386 33.397H34.2917V39.5126L38.2224 40.6127L38.6295 40.7267L38.6194 40.7535L44.4932 42.3968H44.5469H44.5519H44.6056L44.6569 42.4112L62.7341 47.4696C62.9285 47.5201 63.1233 47.5754 63.3178 47.6348L63.3216 47.6356L63.331 47.6387C63.4877 47.6885 63.653 47.7406 63.8202 47.8013C63.8419 47.8063 63.8633 47.8129 63.8839 47.8207C65.1225 48.2528 66.291 48.8329 67.3569 49.5465H67.3654L67.4654 49.6161C67.6575 49.7499 67.8515 49.8883 68.0409 50.0306H68.0499L68.1556 50.1146C68.373 50.2861 68.5884 50.4607 68.8 50.6454C69.2285 51.011 69.6298 51.4014 70.002 51.8136L71.9058 54.5065L71.9066 54.5076C72.9231 56.429 73.4127 58.5429 73.3314 60.6719C73.2497 62.8013 72.6003 64.8794 71.44 66.7328C70.28 68.5857 68.6436 70.159 66.6717 71.3245C64.7989 72.4312 62.673 73.1401 60.4557 73.4014V79.3359V79.7247H60.0668H53.0513H52.6625V79.3359V73.5173H45.9833V79.3359V79.7247H45.5945H38.5786H38.1897V79.3359V73.5173H26.8872H26.4984V73.1284V51.025V50.5128L26.9919 50.6505L34.0075 52.6108L34.2917 52.6901V52.9852V66.4602H58.5386C60.1368 66.4598 61.6838 65.9741 62.925 65.0883H62.9254C64.1666 64.2028 65.0264 62.9732 65.3764 61.6064M61.8358 34.1288L61.9968 33.7882M61.8358 34.1288C62.8496 34.6087 63.7125 35.3012 64.3521 36.142M64.3521 36.142L64.6617 35.9067M64.3521 36.142C64.9914 36.9827 65.3888 37.9471 65.5137 38.9503C65.6389 39.9532 65.488 40.9693 65.0731 41.9115L65.04 41.9862V42.0682V42.0725V42.3673L65.3239 42.447L72.0295 44.3264L72.0808 44.3408H72.1341H72.1391H72.4036L72.5008 44.095C73.2326 42.2444 73.499 40.2701 73.2805 38.3145C73.0619 36.3589 72.3643 34.4733 71.2397 32.7919L71.1242 32.6192H71.1203C69.9483 30.925 68.3683 29.4912 66.4983 28.4217C64.6667 27.3741 62.6038 26.7023 60.4557 26.4507V20.5122V20.1233H60.0668H53.0513H52.6625V20.5122V26.3398H45.9833V20.5122V20.1233H45.5945H38.5786H38.1897V20.5122V26.3398H26.8872H26.4984V26.7287V44.4228V44.718L26.7824 44.7973L33.7983 46.7618L48.8469 50.9736H48.8473L60.5992 54.2615L60.6027 54.2638L60.6618 54.2798C60.8139 54.321 60.9609 54.3649 61.1012 54.4151C61.1067 54.4174 61.1121 54.4198 61.1176 54.4221C61.1312 54.4275 61.1456 54.4322 61.1599 54.4365L61.1864 54.4458H61.1953L61.2692 54.4664L61.2681 54.4695L61.6064 54.6157C63.0405 55.2368 64.1876 56.2708 64.8682 57.54C65.5483 58.8077 65.726 60.2407 65.3764 61.6064M65.3764 61.6064L65.7532 61.7028" stroke="white" stroke-width="0.566038"/>
<defs>
<linearGradient id="paint0_linear_17_2" x1="107.868" y1="103.541" x2="21.8209" y2="-21.6107" gradientUnits="userSpaceOnUse">
<stop stop-color="#0118FE"/>
<stop offset="1" stop-color="#01FFFD"/>
</linearGradient>
</defs>
</svg>
